# xmcd
#
# Track frame offsets:
#   150
#   13941
#   23771
#   33696
#   44000
#   56737
#   67927
#   78992
#   88727
#   96908
#   108159
#   118600
#   131096
#   143147
#   153199
#   167930
#   184957
#   195869
#   204861
#   215068
#   226479
#   236041
#   246613
#   256270
#
# Disc length: 3595 seconds
#
# Revision: 0
# Processed by: cddbd v1.5.2PL0 Copyright (c) Steve Scherf et al.
# Submitted via: uFREEDB 1.6.0
#
DISCID=590e0918
DTITLE=Various Artists  - this is the nashville sound
DYEAR=1900
DGENRE=Country
TTITLE0=dolly parton - mule skinner blues (blues yodel  no
TTITLE1=charley pride - is anybody goin' to san antone
TTITLE2=chat atkins - snowbird
TTITLE3=waylon jennings - the taker
TTITLE4=connie smith - I never once stopped loving you
TTITLE5=nat stuckey - sweet thang and cisco
TTITLE6=dottie west and the jordanaires - for ever yours
TTITLE7=kenny price - biloxi
TTITLE8=danny davis and the nashville brass - columbus stock
TTITLE9=george hamilton IV - she's a little bit country
TTITLE10=porter wagoner and dolly parton - just someone I use
TTITLE11=dallas frazier - the birthmark henry thompson talk
TTITLE12=eddy arnold - from heaven to heartache
TTITLE13=skeeter davis - I'm a lover (not a fighter)
TTITLE14=floyd cramer - for the good times
TTITLE15=hank snow - come the morning
TTITLE16=hank locklin and the jordanaires - bless her heart
TTITLE17=dottie west and the jordanaires - slowly
TTITLE18=jerry reed - amos moses
TTITLE19=willie nelson - once more with feeling
TTITLE20=the nashville string band - strollin'
TTITLE21=jim reeves - angels don't lie
TTITLE22=norma jean - whiskey-six years
TTITLE23=jim ed brown - morning
EXTD=
EXTT0=
EXTT1=
EXTT2=
EXTT3=
EXTT4=
EXTT5=
EXTT6=
EXTT7=
EXTT8=
EXTT9=
EXTT10=
EXTT11=
EXTT12=
EXTT13=
EXTT14=
EXTT15=
EXTT16=
EXTT17=
EXTT18=
EXTT19=
EXTT20=
EXTT21=
EXTT22=
EXTT23=
PLAYORDER=
